# xmcd
#
# Track frame offsets: 
#        150
#        13072
#        31437
#        44867
#        63280
#        76107
#        94327
#        106665
#        123422
#        139207
#        152852
#        167935
#
# Disc length: 2428 seconds
#
# Revision: 0
# Processed by: cddbd v1.5.1PL0 Copyright (c) Steve Scherf et al.
# Submitted via: ExactAudioCopy v0.95a2
#
DISCID=a0097a0c
DTITLE=Joe Callicott - North Mississippi Blues
DYEAR=2004
DGENRE=Blues
TTITLE0=River Blues
TTITLE1=Uptown Blues
TTITLE2=Let The Deal Go Down
TTITLE3=Good Time Blues
TTITLE4=Down To The River Jordan
TTITLE5=Something Just Keep A-Worryin' My Mind
TTITLE6=When The Saints Go Marching In
TTITLE7=Goodbye Baby Blues
TTITLE8=Frankie And Albert
TTITLE9=Rolling And Tumbling
TTITLE10=Travelling Mama Blues (1930)
TTITLE11=Fare Thee Well Blues (1930)
EXTD=
EXTT0=
EXTT1=
EXTT2=
EXTT3=
EXTT4=
EXTT5=
EXTT6=
EXTT7=
EXTT8=
EXTT9=
EXTT10=
EXTT11=
PLAYORDER=
